:FULLY-SPECIFIED
:FORCE-ALL-JOINTS-BE-3DOF
:DEGREES
307
root 10.0162 16.7529 6.1858 7.37394 7.44989 5.10003
lfemur 13.7066 2.92769 -28.7047
ltibia 6.36111e-15 0 0
lfoot -14.6643 0.872805 0
ltoes 1.19895 0 0
rfemur -44.1939 18.1536 -0.849533
rtibia 25.2359 0 0
rfoot -32.8452 -19.8742 0
rtoes -21.3767 0 0
lowerback -8.02387 -4.9625 -6.90312
upperback -0.755937 -6.07315 1.90723
thorax 4.62974 -3.16703 5.0961
lowerneck -18.8571 -4.68291 -12.8086
upperneck 21.7683 -5.85366 12.2363
head 10.8954 -2.32653 5.74676
lclavicle -4.66647e-14 -3.18055e-15 0
lhumerus -11.9981 -35.5609 90.3238
lradius 37.2263 0 0
lwrist 17.6575 0 0
lhand -11.3006 -20.8009 0
lfingers 7.12502 0 0
lthumb 14.7309 8.6557 0
rclavicle -4.66647e-14 -3.18055e-15 0
rhumerus -49.7118 6.05712 -82.7475
rradius 34.614 0 0
rwrist -18.9952 0 0
rhand -28.2791 -27.186 0
rfingers 7.12502 0 0
rthumb -1.65544 -57.1593 0
308
root 10.0119 16.7575 6.33432 7.34498 7.6404 5.0644
lfemur 13.509 3.15742 -28.5008
ltibia 2.05223 0 0
lfoot -14.3849 1.1073 0
ltoes 1.22477 0 0
rfemur -44.549 17.8728 -0.411242
rtibia 25.9892 0 0
rfoot -32.6617 -19.5643 0
rtoes -21.1375 0 0
lowerback -7.93038 -4.99863 -6.86208
upperback -0.788817 -6.12225 1.90274
thorax 4.53234 -3.18957 5.06518
lowerneck -18.8836 -4.70941 -12.8226
upperneck 21.73 -5.89573 12.2954
head 10.8965 -2.33929 5.76357
lclavicle -4.58026e-14 -3.96941e-15 0
lhumerus -12.2739 -35.5619 90.5925
lradius 37.0097 0 0
lwrist 17.5456 0 0
lhand -11.4345 -20.711 0
lfingers 7.12502 0 0
lthumb 14.6018 8.75458 0
rclavicle -4.58026e-14 -3.96941e-15 0
rhumerus -49.7495 6.21092 -82.7754
rradius 34.7522 0 0
rwrist -19.1848 0 0
rhand -28.3297 -27.2811 0
rfingers 7.12502 0 0
rthumb -1.7043 -57.2538 0
309
root 10.0063 16.7625 6.48435 7.31629 7.82029 5.01967
lfemur 13.2728 3.38079 -28.288
ltibia 4.0822 0 0
lfoot -14.1097 1.34313 0
ltoes 1.23991 0 0
rfemur -44.8485 17.5882 0.0440186
rtibia 26.7086 0 0
rfoot -32.4618 -19.2403 0
rtoes -20.8988 0 0
lowerback -7.83934 -5.02775 -6.81412
upperback -0.82053 -6.1628 1.89985
thorax 4.43701 -3.20776 5.03307
lowerneck -18.9101 -4.73654 -12.8367
upperneck 21.6921 -5.93856 12.3538
head 10.8978 -2.35246 5.78003
lclavicle -4.48785e-14 -4.69979e-15 0
lhumerus -12.5759 -35.543 90.8603
lradius 36.7893 0 0
lwrist 17.4274 0 0
lhand -11.5643 -20.6263 0
lfingers 7.12502 0 0
lthumb 14.4768 8.84802 0
rclavicle -4.48785e-14 -4.69979e-15 0
rhumerus -49.771 6.36789 -82.8053
rradius 34.8906 0 0
rwrist -19.3692 0 0
rhand -28.3802 -27.3706 0
rfingers 7.12502 0 0
rthumb -1.75309 -57.3426 0
310
root 9.99948 16.7678 6.63585 7.28785 7.98977 4.96612
lfemur 12.9994 3.59787 -28.0667
ltibia 6.08936 0 0
lfoot -13.8388 1.58011 0
ltoes 1.24466 0 0
rfemur -45.0938 17.3 0.515479
rtibia 27.3947 0 0
rfoot -32.2461 -18.9028 0
rtoes -20.6606 0 0
lowerback -7.75073 -5.05005 -6.75946
upperback -0.851091 -6.19505 1.89854
thorax 4.34374 -3.22174 4.99985
lowerneck -18.9363 -4.76426 -12.8508
upperneck 21.6547 -5.98212 12.4116
head 10.8993 -2.36604 5.79613
lclavicle -4.38945e-14 -5.37297e-15 0
lhumerus -12.9031 -35.5046 91.1269
lradius 36.5656 0 0
lwrist 17.3033 0 0
lhand -11.69 -20.5467 0
lfingers 7.12502 0 0
lthumb 14.3556 8.93611 0
rclavicle -4.38945e-14 -5.37297e-15 0
rhumerus -49.7767 6.52784 -82.837
rradius 35.029 0 0
rwrist -19.5485 0 0
rhand -28.4306 -27.4545 0
rfingers 7.12502 0 0
rthumb -1.80179 -57.4259 0
311
root 9.99147 16.7736 6.78874 7.2597 8.14905 4.90406
lfemur 12.6899 3.8087 -27.8372
ltibia 8.07315 0 0
lfoot -13.5722 1.81808 0
ltoes 1.23932 0 0
rfemur -45.2864 17.0086 1.00237
rtibia 28.0479 0 0
rfoot -32.0152 -18.5525 0
rtoes -20.4232 0 0
lowerback -7.66453 -5.06573 -6.69835
upperback -0.880515 -6.2192 1.89873
thorax 4.25254 -3.23161 4.96554
lowerneck -18.9624 -4.79256 -12.8649
upperneck 21.6178 -6.02633 12.4687
head 10.901 -2.38001 5.81188
lclavicle -4.28533e-14 -5.99025e-15 0
lhumerus -13.2545 -35.4474 91.3923
lradius 36.3386 0 0
lwrist 17.1735 0 0
lhand -11.8117 -20.472 0
lfingers 7.12502 0 0
lthumb 14.2384 9.01897 0
rclavicle -4.28533e-14 -5.99025e-15 0
rhumerus -49.7671 6.6906 -82.8706
rradius 35.1675 0 0
rwrist -19.7227 0 0
rhand -28.4809 -27.5329 0
rfingers 7.12502 0 0
rthumb -1.85037 -57.5037 0
312
root 9.98232 16.7798 6.94296 7.23183 8.29833 4.83378
lfemur 12.3458 4.01335 -27.6
ltibia 10.033 0 0
lfoot -13.3099 2.05684 0
ltoes 1.22422 0 0
rfemur -45.4277 16.7141 1.50392
rtibia 28.6689 0 0
rfoot -31.7697 -18.1899 0
rtoes -20.1866 0 0
lowerback -7.58072 -5.07497 -6.63101
upperback -0.908819 -6.2355 1.90041
thorax 4.16339 -3.2375 4.93022
lowerneck -18.9884 -4.82138 -12.8791
upperneck 21.5813 -6.07117 12.5251
head 10.9029 -2.39433 5.82728
lclavicle -4.1757e-14 -6.5529e-15 0
lhumerus -13.6292 -35.3721 91.6563
lradius 36.1087 0 0
lwrist 17.0382 0 0
lhand -11.9294 -20.4022 0
lfingers 7.12502 0 0
lthumb 14.125 9.09669 0
rclavicle -4.1757e-14 -6.5529e-15 0
rhumerus -49.7426 6.85598 -82.9059
rradius 35.3059 0 0
rwrist -19.8919 0 0
rhand -28.5311 -27.606 0
rfingers 7.12502 0 0
rthumb -1.8988 -57.5762 0
313
root 9.9721 16.7862 7.09846 7.20426 8.43781 4.75557
lfemur 11.9681 4.21186 -27.3554
ltibia 11.9685 0 0
lfoot -13.052 2.29622 0
ltoes 1.19964 0 0
rfemur -45.5192 16.4169 2.01937
rtibia 29.2582 0 0
rfoot -31.5102 -17.8156 0
rtoes -19.951 0 0
lowerback -7.49929 -5.07796 -6.55767
upperback -0.936018 -6.24416 1.90351
thorax 4.07629 -3.23951 4.89394
lowerneck -19.0142 -4.85069 -12.8932
upperneck 21.5453 -6.11659 12.5808
head 10.9051 -2.409 5.84233
lclavicle -4.06082e-14 -7.06222e-15 0
lhumerus -14.0263 -35.2791 91.9189
lradius 35.876 0 0
lwrist 16.8977 0 0
lhand -12.0431 -20.3371 0
lfingers 7.12502 0 0
lthumb 14.0154 9.16938 0
rclavicle -4.06082e-14 -7.06222e-15 0
rhumerus -49.7037 7.02378 -82.9429
rradius 35.4442 0 0
rwrist -20.0561 0 0
rhand -28.5811 -27.6738 0
rfingers 7.12502 0 0
rthumb -1.94706 -57.6434 0
314
root 9.96085 16.793 7.25516 7.17699 8.56771 4.66973
lfemur 11.5583 4.40429 -27.1038
ltibia 13.8789 0 0
lfoot -12.7985 2.53603 0
ltoes 1.1659 0 0
rfemur -45.5623 16.1173 2.54794
rtibia 29.8165 0 0
rfoot -31.2373 -17.4303 0
rtoes -19.7165 0 0
lowerback -7.42022 -5.07489 -6.47857
upperback -0.962126 -6.24542 1.90799
thorax 3.99125 -3.23777 4.85674
lowerneck -19.0397 -4.88046 -12.9074
upperneck 21.5098 -6.16252 12.6357
head 10.9074 -2.42399 5.85703
lclavicle -3.94091e-14 -7.51948e-15 0
lhumerus -14.4447 -35.1691 92.1798
lradius 35.6409 0 0
lwrist 16.7522 0 0
lhand -12.1529 -20.2766 0
lfingers 7.12502 0 0
lthumb 13.9096 9.23716 0
rclavicle -3.94091e-14 -7.51948e-15 0
rhumerus -49.6508 7.19382 -82.9815
rradius 35.5822 0 0
rwrist -20.2153 0 0
rhand -28.6308 -27.7365 0
rfingers 7.12502 0 0
rthumb -1.99512 -57.7055 0
315
root 9.94863 16.8001 7.41302 7.15004 8.68822 4.57654
lfemur 11.1176 4.59069 -26.8457
ltibia 15.7637 0 0
lfoot -12.5494 2.77611 0
ltoes 1.1233 0 0
rfemur -45.5585 15.8155 3.08886
rtibia 30.3442 0 0
rfoot -30.9516 -17.0346 0
rtoes -19.4832 0 0
lowerback -7.34349 -5.06594 -6.39394
upperback -0.98716 -6.2395 1.9138
thorax 3.90824 -3.23239 4.81869
lowerneck -19.0651 -4.91066 -12.9215
upperneck 21.4748 -6.20894 12.6899
head 10.9098 -2.43927 5.87138
lclavicle -3.81621e-14 -7.92598e-15 0
lhumerus -14.8837 -35.0428 92.4389
lradius 35.4034 0 0
lwrist 16.602 0 0
lhand -12.2588 -20.2207 0
lfingers 7.12502 0 0
lthumb 13.8076 9.30011 0
rclavicle -3.81621e-14 -7.92598e-15 0
rhumerus -49.5845 7.36592 -83.0216
rradius 35.7199 0 0
rwrist -20.3696 0 0
rhand -28.6804 -27.7943 0
rfingers 7.12502 0 0
rthumb -2.04295 -57.7627 0
316
root 9.9355 16.8075 7.57196 7.12341 8.79955 4.47632
lfemur 10.6472 4.77113 -26.5813
ltibia 17.6224 0 0
lfoot -12.3048 3.01627 0
ltoes 1.07215 0 0
rfemur -45.5092 15.5118 3.64136
rtibia 30.842 0 0
rfoot -30.6538 -16.629 0
rtoes -19.2513 0 0
lowerback -7.26908 -5.05131 -6.30401
upperback -1.01114 -6.22662 1.92091
thorax 3.82728 -3.22348 4.77983
lowerneck -19.0903 -4.94125 -12.9356
upperneck 21.4403 -6.25578 12.7434
head 10.9125 -2.45484 5.88539
lclavicle -3.68697e-14 -8.28301e-15 0
lhumerus -15.3421 -34.9006 92.6962
lradius 35.164 0 0
lwrist 16.4474 0 0
lhand -12.3609 -20.1693 0
lfingers 7.12502 0 0
lthumb 13.7092 9.35835 0
rclavicle -3.68697e-14 -8.28301e-15 0
rhumerus -49.5053 7.53989 -83.0632
rradius 35.8571 0 0
rwrist -20.519 0 0
rhand -28.7296 -27.8471 0
rfingers 7.12502 0 0
rthumb -2.09053 -57.8149 0
317
root 9.9215 16.8151 7.73193 7.09711 8.90191 4.36934
lfemur 10.1484 4.94564 -26.3111
ltibia 19.4544 0 0
lfoot -12.0648 3.25633 0
ltoes 1.01275 0 0
rfemur -45.416 15.2066 4.20468
rtibia 31.3104 0 0
rfoot -30.3443 -16.2142 0
rtoes -19.0209 0 0
lowerback -7.19698 -5.03119 -6.20901
upperback -1.03407 -6.20703 1.92926
thorax 3.74836 -3.21118 4.74022
lowerneck -19.1152 -4.97219 -12.9497
upperneck 21.4063 -6.30301 12.796
head 10.9153 -2.47067 5.89904
lclavicle -3.55342e-14 -8.59184e-15 0
lhumerus -15.8191 -34.7432 92.9514
lradius 34.9229 0 0
lwrist 16.2886 0 0
lhand -12.4592 -20.1222 0
lfingers 7.12502 0 0
lthumb 13.6144 9.41198 0
rclavicle -3.55342e-14 -8.59184e-15 0
rhumerus -49.4134 7.71554 -83.1061
rradius 35.9938 0 0
rwrist -20.6636 0 0
rhand -28.7786 -27.8952 0
rfingers 7.12502 0 0
rthumb -2.13783 -57.8624 0
318
root 9.9067 16.823 7.89287 7.07116 8.9955 4.25591
lfemur 9.62261 5.11429 -26.0356
ltibia 21.2593 0 0
lfoot -11.8293 3.49611 0
ltoes 0.94541 0 0
rfemur -45.2803 14.9 4.77804
rtibia 31.75 0 0
rfoot -30.0238 -15.7908 0
rtoes -18.7921 0 0
lowerback -7.12716 -5.00576 -6.10918
upperback -1.05597 -6.18093 1.93881
thorax 3.67146 -3.19559 4.69992
lowerneck -19.1399 -5.00345 -12.9637
upperneck 21.3729 -6.35056 12.8479
head 10.9183 -2.48674 5.91234
lclavicle -3.41579e-14 -8.85376e-15 0
lhumerus -16.3137 -34.5712 93.2045
lradius 34.6801 0 0
lwrist 16.1258 0 0
lhand -12.5538 -20.0793 0
lfingers 7.12502 0 0
lthumb 13.5233 9.4611 0
rclavicle -3.41579e-14 -8.85376e-15 0
rhumerus -49.3095 7.89268 -83.1503
rradius 36.1299 0 0
rwrist -20.8034 0 0
rhand -28.8273 -27.9386 0
rfingers 7.12502 0 0
rthumb -2.18482 -57.9052 0
319
root 9.89114 16.8311 8.0547 7.04556 9.08053 4.13632
lfemur 9.07097 5.27713 -25.755
ltibia 23.0363 0 0
lfoot -11.5985 3.73543 0
ltoes 0.870431 0 0
rfemur -45.1035 14.5924 5.36067
rtibia 32.1614 0 0
rfoot -29.693 -15.3593 0
rtoes -18.565 0 0
lowerback -7.05961 -4.97521 -6.00475
upperback -1.07686 -6.14857 1.94951
thorax 3.59659 -3.17682 4.65897
lowerneck -19.1643 -5.035 -12.9777
upperneck 21.34 -6.39841 12.899
head 10.9214 -2.50303 5.9253
lclavicle -3.27433e-14 -9.07006e-15 0
lhumerus -16.8249 -34.3852 93.4553
lradius 34.4361 0 0
lwrist 15.9594 0 0
lhand -12.6447 -20.0406 0
lfingers 7.12502 0 0
lthumb 13.4357 9.50582 0
rclavicle -3.27433e-14 -9.07006e-15 0
rhumerus -49.194 8.07113 -83.1957
rradius 36.2654 0 0
rwrist -20.9385 0 0
rhand -28.8756 -27.9775 0
rfingers 7.12502 0 0
rthumb -2.23147 -57.9435 0
320
root 9.87488 16.8393 8.21738 7.02032 9.1572 4.01086
lfemur 8.49478 5.43421 -25.4697
ltibia 24.785 0 0
lfoot -11.3723 3.97411 0
ltoes 0.78812 0 0
rfemur -44.887 14.2841 5.95182
rtibia 32.5451 0 0
rfoot -29.3524 -14.9205 0
rtoes -18.3398 0 0
lowerback -6.99431 -4.93973 -5.89594
upperback -1.09676 -6.11016 1.96133
thorax 3.52375 -3.155 4.61744
lowerneck -19.1885 -5.0668 -12.9916
upperneck 21.3076 -6.44648 12.9492
head 10.9247 -2.51952 5.93791
lclavicle -3.12927e-14 -9.24202e-15 0
lhumerus -17.3519 -34.1858 93.7037
lradius 34.1911 0 0
lwrist 15.7895 0 0
lhand -12.732 -20.006 0
lfingers 7.12502 0 0
lthumb 13.3516 9.54625 0
rclavicle -3.12927e-14 -9.24202e-15 0
rhumerus -49.0674 8.2507 -83.2422
rradius 36.4 0 0
rwrist -21.0688 0 0
rhand -28.9235 -28.0119 0
rfingers 7.12502 0 0
rthumb -2.27776 -57.9774 0
